<svg xmlns="http://www.w3.org/2000/svg" xmlns:xlink="http://www.w3.org/1999/xlink" viewBox="0 0 518.11 661.16"><defs><style>.cls-1{fill:none;}.cls-2{isolation:isolate;}.cls-3{clip-path:url(#clip-path);}.cls-4{fill:#7b0f13;}.cls-5{fill:#800f13;}.cls-6{fill:#851014;}.cls-7{fill:#891015;}.cls-8{fill:#8e1116;}.cls-9{fill:#931116;}.cls-10{fill:#981217;}.cls-11{fill:#9c1218;}.cls-12{fill:#a11318;}.cls-13{fill:#a61419;}.cls-14{fill:#ab141a;}.cls-15{fill:#af151b;}.cls-16{fill:#b4151b;}.cls-17{fill:#b9161c;}.cls-18{fill:#be161d;}.cls-19{clip-path:url(#clip-path-2);}.cls-20{fill:#b7161c;}.cls-21{fill:#cc181f;}.cls-22{clip-path:url(#clip-path-3);}.cls-23{fill:#c2171e;}.cls-24{fill:#c7181e;}.cls-25{fill:#d11920;}.cls-26{fill:#d51920;}.cls-27{fill:#da1a21;}.cls-28{fill:#df1a22;}.cls-29{fill:#e41b23;}.cls-30{fill:#e81b23;}.cls-31{fill:#ed1c24;}.cls-32{fill:#ef373e;}.cls-33{fill:#f04349;}.cls-34{fill:#f14b52;}.cls-35{fill:#f15259;}.cls-36{fill:#f2595f;}.cls-37{fill:#7f0f13;}.cls-38{fill:#875e20;}.cls-39{fill:#c1272d;}.cls-40{opacity:0.5;}.cls-41{fill:#fbb03b;}.cls-42{fill:#898989;}.cls-43{fill:#0e0e0e;}.cls-44{fill:#6a543a;}.cls-45{fill:#373737;}</style><clipPath id="clip-path"><path class="cls-1" d="M3.48,4.67l7-4.09c1.55-.9,3.7-.78,6.06.58l-7,4.1C7.18,3.89,5,3.77,3.48,4.67Z"/></clipPath><clipPath id="clip-path-2"><path class="cls-1" d="M514.62,656.48l-7.05,4.1c1.53-.89,2.49-2.78,2.49-5.45l7.05-4.09C517.1,653.71,516.15,655.59,514.62,656.48Z"/></clipPath><clipPath id="clip-path-3"><path class="cls-1" d="M502.57,289.91l7.05-4.1c4.68,2.71,8.5,9.32,8.49,14.71l-7.05,4.09C511.07,299.23,507.25,292.61,502.57,289.91Z"/></clipPath></defs><title>Zasób 1</title><g id="Warstwa_2" data-name="Warstwa 2"><g id="Warstwa_1-2" data-name="Warstwa 1"><g class="cls-2"><g class="cls-2"><g class="cls-3"><g class="cls-2"><path class="cls-4" d="M3.48,4.67l7-4.09a3.42,3.42,0,0,1,.7-.32l-7,4.09a5.55,5.55,0,0,0-.7.32"/><path class="cls-5" d="M4.18,4.35,11.23.26a3.78,3.78,0,0,1,.6-.17l-7,4.1a3.77,3.77,0,0,0-.6.16"/><path class="cls-6" d="M4.78,4.19,11.83.09,12.32,0l-7,4.1a3.85,3.85,0,0,0-.49.07"/><path class="cls-7" d="M5.27,4.12,12.32,0l.44,0-7,4.1a3.17,3.17,0,0,0-.44,0"/><path class="cls-8" d="M5.71,4.1,12.76,0h.4l-7,4.1h-.4"/><path class="cls-9" d="M6.11,4.11,13.16,0l.38,0-7,4.1-.38,0"/><path class="cls-10" d="M6.49,4.15l7-4.1.37.06-7,4.1a2.5,2.5,0,0,0-.38-.06"/><path class="cls-11" d="M6.87,4.21l7-4.1.35.08-7,4.1-.34-.08"/><path class="cls-12" d="M7.21,4.29,14.26.19l.35.1-7,4.09-.35-.09"/><path class="cls-13" d="M7.56,4.38,14.61.29,15,.4l-7,4.09-.34-.11"/><path class="cls-14" d="M7.9,4.49,15,.4l.34.13-7,4.09L7.9,4.49"/><path class="cls-15" d="M8.25,4.62l7-4.09.34.14-7,4.1-.33-.15"/><path class="cls-16" d="M8.58,4.77,15.63.67,16,.83l-7,4.1-.35-.16"/><path class="cls-17" d="M8.93,4.93l7-4.1.35.18-7,4.1a2.79,2.79,0,0,0-.34-.18"/><path class="cls-18" d="M9.27,5.11,16.32,1l.27.15-7,4.1-.27-.15"/></g></g></g><g class="cls-2"><g class="cls-19"><g class="cls-2"><path class="cls-14" d="M510.06,655.13l7.05-4.09v0l-7.05,4.1v0"/><path class="cls-13" d="M510.06,655.16l7.05-4.1c0,.14,0,.27,0,.41l-7.05,4.09c0-.13,0-.27,0-.4"/><path class="cls-12" d="M510.05,655.56l7.05-4.09c0,.13,0,.26,0,.39L510,656c0-.13,0-.26,0-.4"/><path class="cls-11" d="M510,656l7.05-4.1c0,.14,0,.28,0,.41l-7,4.1c0-.14,0-.27,0-.41"/><path class="cls-10" d="M510,656.37l7-4.1-.06.4-7.05,4.1.06-.4"/><path class="cls-9" d="M509.93,656.77l7.05-4.1-.09.42-7.05,4.09c0-.13.06-.27.09-.41"/><path class="cls-8" d="M509.84,657.18l7.05-4.09c0,.15-.07.29-.11.43l-7,4.1c0-.14.08-.29.11-.44"/><path class="cls-7" d="M509.73,657.62l7-4.1c0,.15-.09.3-.15.45l-7.05,4.09a3.26,3.26,0,0,0,.15-.44"/><path class="cls-6" d="M509.58,658.06l7.05-4.09c-.06.16-.13.32-.2.48l-7,4.09c.07-.15.14-.31.2-.48"/><path class="cls-5" d="M509.38,658.54l7-4.09c-.1.2-.21.4-.32.58l-7.05,4.1a5.54,5.54,0,0,0,.32-.59"/><path class="cls-4" d="M509.06,659.13l7.05-4.1a4.39,4.39,0,0,1-1.49,1.45l-7.05,4.1a4.39,4.39,0,0,0,1.49-1.45"/></g></g></g><polygon class="cls-20" points="511.06 304.61 518.11 300.51 517.11 651.04 510.06 655.13 511.06 304.61"/><polygon class="cls-21" points="9.54 5.26 16.59 1.16 509.62 285.81 502.57 289.91 9.54 5.26"/><g class="cls-2"><g class="cls-22"><g class="cls-2"><path class="cls-18" d="M502.57,289.91l7.05-4.1.09.05-7,4.1-.09,0"/><path class="cls-23" d="M502.66,290l7-4.1.35.22-7.05,4.1c-.11-.08-.23-.15-.35-.22"/><path class="cls-24" d="M503,290.18l7.05-4.1.36.24-7.05,4.09-.36-.23"/><path class="cls-21" d="M503.37,290.41l7.05-4.09.36.26-7,4.09-.37-.26"/><path class="cls-25" d="M503.74,290.67l7-4.09.38.28-7.05,4.1-.37-.29"/><path class="cls-26" d="M504.11,291l7.05-4.1.37.31-7,4.09-.37-.3"/><path class="cls-27" d="M504.48,291.26l7-4.09c.13.1.25.21.38.33l-7.05,4.09-.38-.33"/><path class="cls-28" d="M504.86,291.59l7.05-4.09.37.34-7,4.1c-.12-.12-.24-.24-.37-.35"/><path class="cls-29" d="M505.23,291.94l7-4.1.36.36-7.05,4.09-.36-.35"/><path class="cls-30" d="M505.59,292.29l7.05-4.09.35.36-7.05,4.1c-.11-.13-.23-.25-.35-.37"/><path class="cls-31" d="M505.94,292.66l7.05-4.1.33.37-7.05,4.1-.33-.37"/><path class="cls-32" d="M506.27,293l7.05-4.1.33.38-7,4.1-.33-.38"/><path class="cls-33" d="M506.6,293.41l7-4.1.33.41-7.05,4.1-.33-.41"/><path class="cls-34" d="M506.93,293.82l7.05-4.1.38.5-7.05,4.1c-.12-.17-.25-.34-.38-.5"/><path class="cls-35" d="M507.31,294.32l7.05-4.1.54.77-7,4.1c-.17-.26-.35-.52-.54-.77"/><path class="cls-36" d="M507.85,295.09l7-4.1c.22.33.43.67.64,1l-7,4.09c-.2-.34-.42-.68-.64-1"/><path class="cls-35" d="M508.49,296.1l7-4.09.42.75-7.05,4.1c-.13-.26-.28-.51-.42-.76"/><path class="cls-34" d="M508.91,296.86l7.05-4.1c.09.17.18.34.26.51l-7,4.1-.27-.51"/><path class="cls-33" d="M509.18,297.37l7-4.1c.08.15.15.3.22.45l-7.05,4.1-.21-.45"/><path class="cls-32" d="M509.39,297.82l7.05-4.1c.07.14.13.28.19.42l-7.05,4.09c-.06-.13-.12-.27-.19-.41"/><path class="cls-31" d="M509.58,298.23l7.05-4.09.18.41-7,4.09-.18-.41"/><path class="cls-30" d="M509.76,298.64l7-4.09c.05.14.11.28.16.41l-7,4.1-.17-.42"/><path class="cls-29" d="M509.93,299.06l7-4.1c.06.14.11.28.16.42l-7.05,4.1-.15-.42"/><path class="cls-28" d="M510.08,299.48l7.05-4.1.15.44-7,4.09a3.66,3.66,0,0,0-.15-.43"/><path class="cls-27" d="M510.23,299.91l7-4.09c.05.14.1.29.14.44l-7,4.09-.15-.44"/><path class="cls-26" d="M510.38,300.35l7-4.09c.05.15.09.3.14.45l-7,4.09c0-.15-.09-.3-.13-.45"/><path class="cls-25" d="M510.51,300.8l7-4.09c0,.15.08.3.11.45l-7,4.1-.12-.46"/><path class="cls-21" d="M510.63,301.26l7-4.1c0,.15.08.3.11.45l-7,4.09c0-.15-.07-.29-.1-.44"/><path class="cls-24" d="M510.73,301.7l7-4.09.09.44-7.05,4.09-.09-.44"/><path class="cls-23" d="M510.82,302.14l7.05-4.09c0,.14,0,.28.07.43l-7.05,4.09c0-.14,0-.28-.07-.43"/><path class="cls-18" d="M510.89,302.57l7.05-4.09.06.42L511,303a3.41,3.41,0,0,0-.06-.43"/><path class="cls-17" d="M511,303l7.05-4.1c0,.14,0,.28,0,.42l-7,4.09c0-.13,0-.27-.05-.41"/><path class="cls-16" d="M511,303.41l7-4.09,0,.41L511,303.82l0-.41"/><path class="cls-15" d="M511,303.82l7.05-4.09c0,.13,0,.27,0,.41l-7.05,4.09c0-.13,0-.27,0-.41"/><path class="cls-14" d="M511.05,304.23l7.05-4.09c0,.12,0,.25,0,.38l-7.05,4.09c0-.12,0-.25,0-.38"/></g></g></g><path class="cls-37" d="M502.57,289.91c4.68,2.7,8.5,9.32,8.49,14.7l-1,350.52c0,5.38-3.85,7.57-8.53,4.87L8.49,375.34C3.8,372.64,0,366,0,360.65L1,10.13C1,4.74,4.85,2.55,9.54,5.26Z"/></g><ellipse class="cls-38" cx="173.56" cy="245.58" rx="40.55" ry="70" transform="translate(-99.89 120.45) rotate(-30.16)"/><ellipse class="cls-39" cx="111.56" cy="205.58" rx="40.55" ry="70" transform="translate(-88.19 83.89) rotate(-30.16)"/><g class="cls-40"><path class="cls-41" d="M173.69,188c27.44,15.84,49.61,54.33,49.52,86s-22.41,44.44-49.85,28.6-49.61-54.33-49.52-86S146.25,172.19,173.69,188Z"/></g><g class="cls-2"><path d="M429.62,431.05l20.69,35.39-20.82,11.43Zm.36,1.18-.13,44.88,19.95-11L430,432.23"/><polygon class="cls-42" points="429.98 432.23 449.8 466.15 429.85 477.11 429.98 432.23"/></g><path class="cls-42" d="M61.9,322.78a13.65,13.65,0,0,1,4.57,4.52,15.33,15.33,0,0,1,2.45,6.21l-5.25-2.8a4.41,4.41,0,0,0-1.71-2,1.41,1.41,0,0,0-1.46-.17,1.46,1.46,0,0,0-.57,1.36,4.21,4.21,0,0,0,.59,2.09A4.13,4.13,0,0,0,62,333.53c.87.51,1.5.28,1.87-.68L69,335.59q-.23,3.32-2.25,4.36c-1.34.71-3,.5-4.89-.61a14.13,14.13,0,0,1-5.14-5.4,14.35,14.35,0,0,1-2.09-7.19c0-2.24.72-3.74,2.14-4.52S59.92,321.63,61.9,322.78Z"/><path class="cls-42" d="M77.32,331.68a18.77,18.77,0,0,1,1.59,1.09l0,6.37a4,4,0,0,0-1-.92c-1-.55-1.42,0-1.43,1.67l0,7.52-5.18-3,0-8.67c0-2.29.55-3.81,1.65-4.54S75.5,330.63,77.32,331.68Z"/><path class="cls-42" d="M87,337.23a14,14,0,0,1,5,5.27,13.72,13.72,0,0,1,2,7q0,.34-.06,1.08L86.13,346a5.66,5.66,0,0,1-.18-1.36,3.62,3.62,0,0,1,.25-1.41l2.64,1.52A3.61,3.61,0,0,0,87.11,342a1.22,1.22,0,0,0-1.59,0,2.84,2.84,0,0,0-.61,2.08,6.84,6.84,0,0,0,.58,2.84A3.9,3.9,0,0,0,87,348.79a1.33,1.33,0,0,0,1.5,0l2.94,5.79a5.62,5.62,0,0,1-4.59-.79,14.26,14.26,0,0,1-5.16-5.36,13.94,13.94,0,0,1-2.08-7.07q0-3.49,2.13-4.68T87,337.23Z"/><path class="cls-42" d="M109.86,344.93l0,13.23q0,3.66-1.68,5a3.44,3.44,0,0,1-2.44.69,6.61,6.61,0,0,1-3-1,14.47,14.47,0,0,1-5.2-5.4,13.8,13.8,0,0,1-2.1-7.08q0-3.36,2.12-4.6c1.41-.81,3.07-.68,5,.43.31.18.77.48,1.39.9l0,6.56a4.09,4.09,0,0,0-1.27-1.31,1.3,1.3,0,0,0-1.38-.12,1.4,1.4,0,0,0-.58,1.3,3.84,3.84,0,0,0,.59,1.93,4,4,0,0,0,1.42,1.48c1.34.77,2,.1,2-2l0-13Z"/><path class="cls-42" d="M113.32,350.61a4.59,4.59,0,0,1-.72-2.45,1.6,1.6,0,0,1,.77-1.57,1.83,1.83,0,0,1,1.83.2,5.12,5.12,0,0,1,1.81,1.9,4.76,4.76,0,0,1,.77,2.46,1.65,1.65,0,0,1-.73,1.61,1.93,1.93,0,0,1-1.87-.27A5.08,5.08,0,0,1,113.32,350.61Z"/><polygon class="cls-42" points="112.53 368.24 112.57 352.37 117.76 355.36 117.71 371.23 112.53 368.24"/><path class="cls-42" d="M125.43,353.92V360l2.32,1.34,0,6.28-2.32-1.34a6.63,6.63,0,0,0,.51,2.91,4.56,4.56,0,0,0,1.91,1.82l0,6.26-.6-.33a12.59,12.59,0,0,1-3.31-2.85,16.08,16.08,0,0,1-2.5-4,15.38,15.38,0,0,1-1.18-6.14l0-13Z"/><path class="cls-42" d="M143.84,370.09a13.81,13.81,0,0,1,4.57,4.51,15.59,15.59,0,0,1,2.46,6.22L145.61,378a4.44,4.44,0,0,0-1.71-2,1.41,1.41,0,0,0-1.46-.17,1.46,1.46,0,0,0-.57,1.36,4.19,4.19,0,0,0,.6,2.09,4,4,0,0,0,1.5,1.56c.87.51,1.5.28,1.87-.69L151,382.9q-.22,3.32-2.24,4.36c-1.35.7-3,.51-4.9-.6a15.78,15.78,0,0,1-7.22-12.6c0-2.23.71-3.74,2.14-4.52S141.87,368.94,143.84,370.09Z"/><path class="cls-42" d="M159.71,379.26a14,14,0,0,1,5.28,5.31,14.23,14.23,0,0,1,1.92,7.27l0,7.78-5.19-3,0-7.35a5,5,0,0,0-.53-2.32,3.68,3.68,0,0,0-1.43-1.58,1.23,1.23,0,0,0-2,1.15,4.05,4.05,0,0,0,1.9,3.37,2,2,0,0,0,1.26.31v6.17a9.79,9.79,0,0,1-1.17-.55,14.36,14.36,0,0,1-5.19-5.35,13.94,13.94,0,0,1-2.06-7.11c0-2.31.71-3.86,2.12-4.65S157.71,378.1,159.71,379.26Z"/><path class="cls-42" d="M176,388.62a17.37,17.37,0,0,1,1.58,1.09l0,6.37a3.81,3.81,0,0,0-1-.92c-.95-.55-1.42,0-1.43,1.67l0,7.52-5.17-3,0-8.68c0-2.29.55-3.81,1.65-4.54S174.13,387.57,176,388.62Z"/><path class="cls-42" d="M192.76,392.79l0,13.23c0,2.44-.57,4.1-1.68,5a3.49,3.49,0,0,1-2.44.7,6.75,6.75,0,0,1-3-1,14.47,14.47,0,0,1-5.2-5.4,13.79,13.79,0,0,1-2.1-7.07c0-2.25.71-3.78,2.12-4.61s3.07-.68,5,.43c.31.18.77.48,1.39.9l0,6.56a4.09,4.09,0,0,0-1.27-1.31,1.31,1.31,0,0,0-1.38-.12,1.41,1.41,0,0,0-.58,1.3,3.84,3.84,0,0,0,.59,1.93,3.9,3.9,0,0,0,1.42,1.48c1.34.77,2,.1,2-2l0-13Z"/><path class="cls-43" d="M443.12,583.38c4.69,2.7,8.5,9.32,8.49,14.7s-3.86,7.57-8.55,4.87L60,381.77c-4.68-2.7-8.5-9.31-8.49-14.69s3.86-7.57,8.54-4.87Z"/><path class="cls-44" d="M401.14,412.14c4.6,2.66,8.33,9.11,8.31,14.4l-.08,27.3c0,5.29-3.77,7.42-8.36,4.77l-36.54-21.09c-4.59-2.66-8.32-9.12-8.31-14.4l.08-27.3c0-5.29,3.77-7.42,8.37-4.77Z"/><path class="cls-45" d="M401.14,411.74c4.79,2.76,8.68,9.49,8.66,15l-.08,27.31c0,5.5-3.92,7.73-8.71,5l-36.54-21.09c-4.79-2.77-8.67-9.5-8.66-15l.08-27.31c0-5.51,3.92-7.73,8.72-5Zm8.23,42.1.08-27.3c0-5.29-3.71-11.74-8.31-14.4l-36.53-21.09c-4.6-2.65-8.35-.52-8.37,4.77l-.08,27.3c0,5.28,3.72,11.74,8.31,14.4L401,458.61c4.59,2.65,8.35.52,8.36-4.77"/><path class="cls-45" d="M382.87,401.15c3.85,2.22,6.84,14.26,6.81,27.4s-3.09,21.69-6.94,19.46-6.85-14.26-6.81-27.4S379,398.92,382.87,401.15Zm-.13,46.46c3.6,2.07,6.55-6.57,6.58-19.27s-2.85-24.71-6.45-26.79-6.55,6.57-6.58,19.27,2.86,24.71,6.45,26.79"/><ellipse class="cls-44" cx="382.81" cy="424.58" rx="6.44" ry="23.36" transform="translate(-19.02 17.95) rotate(-2.62)"/><polygon class="cls-45" points="409.28 433.88 409.28 434.07 388.9 422.3 388.9 422.2 388.9 422.11 409.28 433.88"/><polygon class="cls-45" points="409.27 446 409.27 446.41 388.86 434.62 388.86 434.43 388.86 434.22 409.27 446"/><polygon class="cls-45" points="376.69 415.31 376.69 415.68 356.24 403.87 356.24 403.68 356.24 403.5 376.69 415.31"/><polygon class="cls-45" points="376.74 428.03 376.74 428.43 356.25 416.6 356.25 416.4 356.25 416.2 376.74 428.03"/></g></g></svg>